<mxfile host="app.diagrams.net" modified="2023-12-03T06:04:43.034Z" agent="Mozilla/5.0 (Windows NT 10.0; Win64; x64) AppleWebKit/537.36 (KHTML, like Gecko) Chrome/119.0.0.0 Safari/537.36" version="22.1.5" etag="LptA068Ql1-PwohQxgNQ" type="github">
  <diagram name="Page-1" id="ieqF9iNAXU1SBFgcBrbA">
    <mxGraphModel>
      <root>
        <mxCell id="0" />
        <mxCell id="1" parent="0" />
      </root>
    </mxGraphModel>
  </diagram>
</mxfile>
